solid exported
	facet normal -1 0 0
		outer loop
			vertex -0.750200092792511 1.0103524309538112 -0.5000622196576743
			vertex -0.750200092792511 0.008187709467251003 -0.5000474532463468
			vertex -0.750200092792511 0.008876633895465391 0.5001663485022357
		endloop
	endfacet
	facet normal -1 0 0
		outer loop
			vertex -0.750200092792511 0.008876633895465391 0.5001663485022357
			vertex -0.750200092792511 1.0103525938744957 0.4999378101446348
			vertex -0.750200092792511 1.0103524309538112 -0.5000622196576743
		endloop
	endfacet
	facet normal 0 -0.000014734515204211929 -0.9999999998914472
		outer loop
			vertex 0.7497999519109726 1.0103524309538112 -0.5000622196576743
			vertex 0.7497999519109726 0.008187709467251003 -0.5000474532463468
			vertex -0.750200092792511 0.008187709467251003 -0.5000474532463468
		endloop
	endfacet
	facet normal 0 -0.000014734515204211929 -0.9999999998914472
		outer loop
			vertex -0.750200092792511 0.008187709467251003 -0.5000474532463468
			vertex -0.750200092792511 1.0103524309538112 -0.5000622196576743
			vertex 0.7497999519109726 1.0103524309538112 -0.5000622196576743
		endloop
	endfacet
	facet normal 1 0 0
		outer loop
			vertex 0.7497999519109726 1.0103525938744957 0.4999378101446348
			vertex 0.7497999519109726 0.008876633895465391 0.5001663485022357
			vertex 0.7497999519109726 0.008187709467251003 -0.5000474532463468
		endloop
	endfacet
	facet normal 1 0 0
		outer loop
			vertex 0.7497999519109726 0.008187709467251003 -0.5000474532463468
			vertex 0.7497999519109726 1.0103524309538112 -0.5000622196576743
			vertex 0.7497999519109726 1.0103525938744957 0.4999378101446348
		endloop
	endfacet
	facet normal 0 0.00022820153531699297 0.9999999739620293
		outer loop
			vertex -0.750200092792511 1.0103525938744957 0.4999378101446348
			vertex -0.750200092792511 0.008876633895465391 0.5001663485022357
			vertex 0.7497999519109726 0.008876633895465391 0.5001663485022357
		endloop
	endfacet
	facet normal 0 0.00022820153531699297 0.9999999739620293
		outer loop
			vertex 0.7497999519109726 0.008876633895465391 0.5001663485022357
			vertex 0.7497999519109726 1.0103525938744957 0.4999378101446348
			vertex -0.750200092792511 1.0103525938744957 0.4999378101446348
		endloop
	endfacet
	facet normal 0.0001565221836955536 -1.6292067946528325e-7 -0.9999999877503898
		outer loop
			vertex 0.7497999519109726 0.008876633895465391 0.5001663485022357
			vertex 0.7497999519109726 -0.012726175533703032 0.5001663520217802
			vertex -0.7488635033369064 -0.012787270332814793 0.4999317779522202
		endloop
	endfacet
	facet normal 0 0.010827078918914212 -0.9999413854632098
		outer loop
			vertex -0.7488635033369064 -0.012787270332814793 0.4999317779522202
			vertex -0.750200092792511 0.008876633895465391 0.5001663485022357
			vertex 0.7497999519109726 0.008876633895465391 0.5001663485022357
		endloop
	endfacet
	facet normal 0 0.9999999999999867 -1.629206796434427e-7
		outer loop
			vertex -0.750200092792511 1.0103525938744957 0.4999378101446348
			vertex 0.7497999519109726 1.0103525938744957 0.4999378101446348
			vertex 0.7497999519109726 1.0103524309538112 -0.5000622196576743
		endloop
	endfacet
	facet normal 0 0.9999999999999867 -1.629206796434427e-7
		outer loop
			vertex 0.7497999519109726 1.0103524309538112 -0.5000622196576743
			vertex -0.750200092792511 1.0103524309538112 -0.5000622196576743
			vertex -0.750200092792511 1.0103525938744957 0.4999378101446348
		endloop
	endfacet
	facet normal -0.9988276665837429 -0.0484075662151627 2.045261103692391e-9
		outer loop
			vertex -0.7491547465324402 -0.012692716458248932 0.9941145732230006
			vertex -0.750200092792511 0.008876654765200498 0.994114569708904
			vertex -0.750200092792511 0.008876633895465391 0.5001663485022357
		endloop
	endfacet
	facet normal -0.9981023981995971 -0.06157329308167173 -0.0005764436585349183
		outer loop
			vertex -0.750200092792511 0.008876633895465391 0.5001663485022357
			vertex -0.7488635033369064 -0.012787270332814793 0.4999317779522202
			vertex -0.7491547465324402 -0.012692716458248932 0.9941145732230006
		endloop
	endfacet
	facet normal 0 -0.9999999977057802 0.00006773802180311553
		outer loop
			vertex 0.7497999519109726 -0.012726175533703032 0.5001663520217802
			vertex 0.7495676279067993 -0.012692716458248932 0.9941145732230006
			vertex -0.7491547465324402 -0.012692716458248932 0.9941145732230006
		endloop
	endfacet
	facet normal 0.00004073623744459177 -0.9999999808613739 0.00019135780891842174
		outer loop
			vertex -0.7491547465324402 -0.012692716458248932 0.9941145732230006
			vertex -0.7488635033369064 -0.012787270332814793 0.4999317779522202
			vertex 0.7497999519109726 -0.012726175533703032 0.5001663520217802
		endloop
	endfacet
	facet normal 0 0.9999999999999991 -4.225085588070222e-8
		outer loop
			vertex -0.750200092792511 0.008876654765200498 0.994114569708904
			vertex 0.7497999519109726 0.008876654765200498 0.994114569708904
			vertex 0.7497999519109726 0.008876633895465391 0.5001663485022357
		endloop
	endfacet
	facet normal 0 0.9999999999999991 -4.225085588070222e-8
		outer loop
			vertex 0.7497999519109726 0.008876633895465391 0.5001663485022357
			vertex -0.750200092792511 0.008876633895465391 0.5001663485022357
			vertex -0.750200092792511 0.008876654765200498 0.994114569708904
		endloop
	endfacet
	facet normal 1 0 0
		outer loop
			vertex 0.7497999519109726 -0.012726175533703032 0.5001663520217802
			vertex 0.7497999519109726 0.008876633895465391 0.5001663485022357
			vertex 0.7497999519109726 0.008876654765200498 0.994114569708904
		endloop
	endfacet
	facet normal 0.9999418867396107 -0.010770388204922703 0.0004710430371299275
		outer loop
			vertex 0.7497999519109726 0.008876654765200498 0.994114569708904
			vertex 0.7495676279067993 -0.012692716458248932 0.9941145732230006
			vertex 0.7497999519109726 -0.012726175533703032 0.5001663520217802
		endloop
	endfacet
	facet normal -0.00014708486097010211 -0.010355396408316203 0.9999463706275805
		outer loop
			vertex -0.750200092792511 0.008187709467251003 -0.5000474532463468
			vertex -0.7486263960599899 -0.01300338091384784 -0.5002666756773638
			vertex 0.7497999519109726 -0.013117493970553895 -0.5000474497752886
		endloop
	endfacet
	facet normal 0 1.6292067938999385e-7 0.9999999999999868
		outer loop
			vertex 0.7497999519109726 -0.013117493970553895 -0.5000474497752886
			vertex 0.7497999519109726 0.008187709467251003 -0.5000474532463468
			vertex -0.750200092792511 0.008187709467251003 -0.5000474532463468
		endloop
	endfacet
	facet normal 0 1.6292067732924528e-7 0.9999999999999869
		outer loop
			vertex 0.7497999519109726 0.008876654765200498 0.994114569708904
			vertex -0.750200092792511 0.008876654765200498 0.994114569708904
			vertex -0.7491547465324402 -0.012692716458248932 0.9941145732230006
		endloop
	endfacet
	facet normal 0 1.6292067732924528e-7 0.9999999999999869
		outer loop
			vertex -0.7491547465324402 -0.012692716458248932 0.9941145732230006
			vertex 0.7495676279067993 -0.012692716458248932 0.9941145732230006
			vertex 0.7497999519109726 0.008876654765200498 0.994114569708904
		endloop
	endfacet
	facet normal 0 -1.6292067732924528e-7 -0.9999999999999869
		outer loop
			vertex -0.750200092792511 0.008187569388216631 -0.9939957340576403
			vertex 0.7497999519109726 0.008187569388216631 -0.9939957340576403
			vertex 0.7496615052223206 -0.013381801835232798 -0.9939957305435437
		endloop
	endfacet
	facet normal 0 -1.6292067732924528e-7 -0.9999999999999869
		outer loop
			vertex 0.7496615052223206 -0.013381801835232798 -0.9939957305435437
			vertex -0.7489835321903229 -0.013381801835232798 -0.9939957305435437
			vertex -0.750200092792511 0.008187569388216631 -0.9939957340576403
		endloop
	endfacet
	facet normal -0.9981023041456178 -0.061577110957279156 -0.0002233055383981403
		outer loop
			vertex -0.7486263960599899 -0.01300338091384784 -0.5002666756773638
			vertex -0.7488635033369064 -0.012787270332814793 0.4999317779522202
			vertex -0.750200092792511 0.008876633895465391 0.5001663485022357
		endloop
	endfacet
	facet normal -0.9972538764831643 -0.07405878231028303 0.000051009998230548676
		outer loop
			vertex -0.750200092792511 0.008876633895465391 0.5001663485022357
			vertex -0.750200092792511 0.008187709467251003 -0.5000474532463468
			vertex -0.7486263960599899 -0.01300338091384784 -0.5002666756773638
		endloop
	endfacet
	facet normal 0 0.9999999999999599 -2.8359048874891147e-7
		outer loop
			vertex 0.7497999519109726 0.008187569388216631 -0.9939957340576403
			vertex -0.750200092792511 0.008187569388216631 -0.9939957340576403
			vertex -0.750200092792511 0.008187709467251003 -0.5000474532463468
		endloop
	endfacet
	facet normal 0 0.9999999999999599 -2.8359048874891147e-7
		outer loop
			vertex -0.750200092792511 0.008187709467251003 -0.5000474532463468
			vertex 0.7497999519109726 0.008187709467251003 -0.5000474532463468
			vertex 0.7497999519109726 0.008187569388216631 -0.9939957340576403
		endloop
	endfacet
	facet normal 0 -0.9999999999999868 1.629206797168754e-7
		outer loop
			vertex 0.717445895075798 0.950012126245257 0.4783684487518948
			vertex -0.7178459912538528 0.950012126245257 0.4783684487518948
			vertex -0.7178459912538528 0.9500119703527705 -0.478492808801193
		endloop
	endfacet
	facet normal 0 -0.9999999999999868 1.629206797168754e-7
		outer loop
			vertex -0.7178459912538528 0.9500119703527705 -0.478492808801193
			vertex 0.717445895075798 0.9500119703527705 -0.478492808801193
			vertex 0.717445895075798 0.950012126245257 0.4783684487518948
		endloop
	endfacet
	facet normal -0.9984128869083556 -0.05631271156015701 0.0007653574756739733
		outer loop
			vertex -0.750200092792511 0.008187569388216631 -0.9939957340576403
			vertex -0.7489835321903229 -0.013381801835232798 -0.9939957305435437
			vertex -0.7486263960599899 -0.01300338091384784 -0.5002666756773638
		endloop
	endfacet
	facet normal -0.9972539167379082 -0.07405825781707848 2.1002217530239017e-8
		outer loop
			vertex -0.7486263960599899 -0.01300338091384784 -0.5002666756773638
			vertex -0.750200092792511 0.008187709467251003 -0.5000474532463468
			vertex -0.750200092792511 0.008187569388216631 -0.9939957340576403
		endloop
	endfacet
	facet normal 0.9999793626492277 -0.006418538167747437 -0.0002768455052601787
		outer loop
			vertex 0.7497999519109726 -0.013117493970553895 -0.5000474497752886
			vertex 0.7496615052223206 -0.013381801835232798 -0.9939957305435437
			vertex 0.7497999519109726 0.008187569388216631 -0.9939957340576403
		endloop
	endfacet
	facet normal 1 0 0
		outer loop
			vertex 0.7497999519109726 0.008187569388216631 -0.9939957340576403
			vertex 0.7497999519109726 0.008187709467251003 -0.5000474532463468
			vertex 0.7497999519109726 -0.013117493970553895 -0.5000474497752886
		endloop
	endfacet
	facet normal -0.00007626738662107842 -0.9999997033231364 0.0007665095728630545
		outer loop
			vertex 0.7497999519109726 -0.013117493970553895 -0.5000474497752886
			vertex -0.7486263960599899 -0.01300338091384784 -0.5002666756773638
			vertex -0.7489835321903229 -0.013381801835232798 -0.9939957305435437
		endloop
	endfacet
	facet normal 0 -0.9999998568382077 0.0005350921080827093
		outer loop
			vertex -0.7489835321903229 -0.013381801835232798 -0.9939957305435437
			vertex 0.7496615052223206 -0.013381801835232798 -0.9939957305435437
			vertex 0.7497999519109726 -0.013117493970553895 -0.5000474497752886
		endloop
	endfacet
endsolid exported
