solid exported
	facet normal -1 0 0
		outer loop
			vertex -0.7209353923797608 0.7209352749244669 -0.7209355098350356
			vertex -0.7209353923797608 -0.7209355098350356 -0.7209352749244669
			vertex -0.7209353923797608 -0.7209352749244669 0.7209355098350356
		endloop
	endfacet
	facet normal -1 0 0
		outer loop
			vertex -0.7209353923797608 -0.7209352749244669 0.7209355098350356
			vertex -0.7209353923797608 0.7209355098350356 0.7209352749244669
			vertex -0.7209353923797608 0.7209352749244669 -0.7209355098350356
		endloop
	endfacet
	facet normal 0 -1.6292068003449564e-7 -0.9999999999999869
		outer loop
			vertex 0.7209353923797608 0.7209352749244669 -0.7209355098350356
			vertex 0.7209353923797608 -0.7209355098350356 -0.7209352749244669
			vertex -0.7209353923797608 -0.7209355098350356 -0.7209352749244669
		endloop
	endfacet
	facet normal 0 -1.6292068003449564e-7 -0.9999999999999869
		outer loop
			vertex -0.7209353923797608 -0.7209355098350356 -0.7209352749244669
			vertex -0.7209353923797608 0.7209352749244669 -0.7209355098350356
			vertex 0.7209353923797608 0.7209352749244669 -0.7209355098350356
		endloop
	endfacet
	facet normal 1 0 0
		outer loop
			vertex 0.7209353923797608 0.7209355098350356 0.7209352749244669
			vertex 0.7209353923797608 -0.7209352749244669 0.7209355098350356
			vertex 0.7209353923797608 -0.7209355098350356 -0.7209352749244669
		endloop
	endfacet
	facet normal 1 0 0
		outer loop
			vertex 0.7209353923797608 -0.7209355098350356 -0.7209352749244669
			vertex 0.7209353923797608 0.7209352749244669 -0.7209355098350356
			vertex 0.7209353923797608 0.7209355098350356 0.7209352749244669
		endloop
	endfacet
	facet normal 0 1.6292068003449564e-7 0.9999999999999869
		outer loop
			vertex -0.7209353923797608 0.7209355098350356 0.7209352749244669
			vertex -0.7209353923797608 -0.7209352749244669 0.7209355098350356
			vertex 0.7209353923797608 -0.7209352749244669 0.7209355098350356
		endloop
	endfacet
	facet normal 0 1.6292068003449564e-7 0.9999999999999869
		outer loop
			vertex 0.7209353923797608 -0.7209352749244669 0.7209355098350356
			vertex 0.7209353923797608 0.7209355098350356 0.7209352749244669
			vertex -0.7209353923797608 0.7209355098350356 0.7209352749244669
		endloop
	endfacet
	facet normal 0 -0.9999999999999869 1.6292068003449564e-7
		outer loop
			vertex 0.7209353923797608 -0.7209352749244669 0.7209355098350356
			vertex -0.7209353923797608 -0.7209352749244669 0.7209355098350356
			vertex -0.7209353923797608 -0.7209355098350356 -0.7209352749244669
		endloop
	endfacet
	facet normal 0 -0.9999999999999869 1.6292068003449564e-7
		outer loop
			vertex -0.7209353923797608 -0.7209355098350356 -0.7209352749244669
			vertex 0.7209353923797608 -0.7209355098350356 -0.7209352749244669
			vertex 0.7209353923797608 -0.7209352749244669 0.7209355098350356
		endloop
	endfacet
	facet normal 1 0 0
		outer loop
			vertex 0.3940981665932043 1.1514885413812177 -0.3940983541945058
			vertex 0.3940981665932043 1.1514886697947002 0.39409797899189236
			vertex 0.3940981665932043 0.7209354565864925 0.3940980491379147
		endloop
	endfacet
	facet normal 1 0 0
		outer loop
			vertex 0.3940981665932043 0.7209354565864925 0.3940980491379147
			vertex 0.3940981665932043 0.72093532817301 -0.39409828404848346
			vertex 0.3940981665932043 1.1514885413812177 -0.3940983541945058
		endloop
	endfacet
	facet normal 1.3660002223995226e-16 0.9999999999999868 -1.6292068003449564e-7
		outer loop
			vertex -0.7209353923797608 0.7209352749244669 -0.7209355098350356
			vertex -0.7209353923797608 0.7209355098350356 0.7209352749244669
			vertex -0.3940981665932043 0.7209354565864925 0.3940980491379147
		endloop
	endfacet
	facet normal -2.4988642134648706e-16 0.9999999999999869 -1.6292067992120922e-7
		outer loop
			vertex -0.3940981665932043 0.7209354565864925 0.3940980491379147
			vertex -0.3940981665932043 0.72093532817301 -0.39409828404848346
			vertex -0.7209353923797608 0.7209352749244669 -0.7209355098350356
		endloop
	endfacet
	facet normal 0 0.9999999999999869 -1.629206801710957e-7
		outer loop
			vertex 0.7209353923797608 0.7209352749244669 -0.7209355098350356
			vertex -0.7209353923797608 0.7209352749244669 -0.7209355098350356
			vertex -0.3940981665932043 0.72093532817301 -0.39409828404848346
		endloop
	endfacet
	facet normal 0 0.9999999999999869 -1.6292068017109564e-7
		outer loop
			vertex -0.3940981665932043 0.72093532817301 -0.39409828404848346
			vertex 0.3940981665932043 0.72093532817301 -0.39409828404848346
			vertex 0.7209353923797608 0.7209352749244669 -0.7209355098350356
		endloop
	endfacet
	facet normal 1.3660002223995226e-16 0.9999999999999868 -1.6292068003449564e-7
		outer loop
			vertex 0.7209353923797608 0.7209355098350356 0.7209352749244669
			vertex 0.7209353923797608 0.7209352749244669 -0.7209355098350356
			vertex 0.3940981665932043 0.72093532817301 -0.39409828404848346
		endloop
	endfacet
	facet normal -2.4988642134648706e-16 0.9999999999999869 -1.6292067992120922e-7
		outer loop
			vertex 0.3940981665932043 0.72093532817301 -0.39409828404848346
			vertex 0.3940981665932043 0.7209354565864925 0.3940980491379147
			vertex 0.7209353923797608 0.7209355098350356 0.7209352749244669
		endloop
	endfacet
	facet normal 0 0.9999999999999869 -1.629206801710957e-7
		outer loop
			vertex -0.7209353923797608 0.7209355098350356 0.7209352749244669
			vertex 0.7209353923797608 0.7209355098350356 0.7209352749244669
			vertex 0.3940981665932043 0.7209354565864925 0.3940980491379147
		endloop
	endfacet
	facet normal 0 0.9999999999999869 -1.6292068017109564e-7
		outer loop
			vertex 0.3940981665932043 0.7209354565864925 0.3940980491379147
			vertex -0.3940981665932043 0.7209354565864925 0.3940980491379147
			vertex -0.7209353923797608 0.7209355098350356 0.7209352749244669
		endloop
	endfacet
	facet normal 0 0.9999999999999868 -1.6292067992120922e-7
		outer loop
			vertex -0.3940981665932043 1.1514886697947002 0.39409797899189236
			vertex 0.3940981665932043 1.1514886697947002 0.39409797899189236
			vertex 0.3940981665932043 1.1514885413812177 -0.3940983541945058
		endloop
	endfacet
	facet normal 0 0.9999999999999868 -1.6292067992120922e-7
		outer loop
			vertex 0.3940981665932043 1.1514885413812177 -0.3940983541945058
			vertex -0.3940981665932043 1.1514885413812177 -0.3940983541945058
			vertex -0.3940981665932043 1.1514886697947002 0.39409797899189236
		endloop
	endfacet
	facet normal -1 0 0
		outer loop
			vertex -0.3940981665932043 1.1514886697947002 0.39409797899189236
			vertex -0.3940981665932043 1.1514885413812177 -0.3940983541945058
			vertex -0.3940981665932043 0.72093532817301 -0.39409828404848346
		endloop
	endfacet
	facet normal -1 0 0
		outer loop
			vertex -0.3940981665932043 0.72093532817301 -0.39409828404848346
			vertex -0.3940981665932043 0.7209354565864925 0.3940980491379147
			vertex -0.3940981665932043 1.1514886697947002 0.39409797899189236
		endloop
	endfacet
	facet normal 0 1.629206801206763e-7 0.9999999999999869
		outer loop
			vertex 0.3940981665932043 1.1514886697947002 0.39409797899189236
			vertex -0.3940981665932043 1.1514886697947002 0.39409797899189236
			vertex -0.3940981665932043 0.7209354565864925 0.3940980491379147
		endloop
	endfacet
	facet normal 0 1.629206801206763e-7 0.9999999999999869
		outer loop
			vertex -0.3940981665932043 0.7209354565864925 0.3940980491379147
			vertex 0.3940981665932043 0.7209354565864925 0.3940980491379147
			vertex 0.3940981665932043 1.1514886697947002 0.39409797899189236
		endloop
	endfacet
	facet normal 0 -1.629206801206763e-7 -0.9999999999999869
		outer loop
			vertex -0.3940981665932043 1.1514885413812177 -0.3940983541945058
			vertex 0.3940981665932043 1.1514885413812177 -0.3940983541945058
			vertex 0.3940981665932043 0.72093532817301 -0.39409828404848346
		endloop
	endfacet
	facet normal 0 -1.629206801206763e-7 -0.9999999999999869
		outer loop
			vertex 0.3940981665932043 0.72093532817301 -0.39409828404848346
			vertex -0.3940981665932043 0.72093532817301 -0.39409828404848346
			vertex -0.3940981665932043 1.1514885413812177 -0.3940983541945058
		endloop
	endfacet
endsolid exported
